<?xml version="1.0" standalone="no"?>
<!DOCTYPE svg PUBLIC "-//W3C//DTD SVG 20010904//EN"
 "http://www.w3.org/TR/2001/REC-SVG-20010904/DTD/svg10.dtd">
<svg version="1.0" xmlns="http://www.w3.org/2000/svg"
 width="4096.000000pt" height="4096.000000pt" viewBox="0 0 4096.000000 4096.000000"
 preserveAspectRatio="xMidYMid meet">

<g transform="translate(0.000000,4096.000000) scale(0.100000,-0.100000)"
fill="#000000" stroke="none">
<path d="M20620 31235 c-426 -24 -673 -37 -975 -50 -510 -22 -515 -23 -590
-108 -106 -121 -179 -339 -255 -757 -23 -127 -58 -304 -67 -335 -6 -20 -6 -20
-13 0 -4 11 -10 46 -14 77 -17 136 -145 216 -285 178 -59 -15 -105 -64 -326
-338 -289 -357 -438 -542 -639 -787 -103 -126 -260 -320 -349 -430 -88 -110
-202 -249 -252 -310 -50 -60 -107 -130 -127 -155 -19 -25 -129 -160 -243 -300
-114 -140 -240 -295 -280 -345 -40 -49 -165 -202 -277 -340 -111 -137 -212
-263 -223 -280 -19 -29 -20 -47 -20 -617 0 -324 -4 -589 -9 -590 -4 -2 -21 32
-36 74 -37 101 -106 230 -144 269 -42 43 -103 83 -159 104 -87 33 -211 5 -290
-65 -34 -29 -147 -166 -591 -714 -76 -94 -180 -223 -231 -286 -52 -63 -200
-245 -331 -405 -130 -159 -269 -330 -309 -380 -41 -49 -119 -146 -174 -214
-115 -141 -168 -222 -205 -309 -41 -96 -94 -258 -110 -330 -8 -37 -25 -110
-39 -162 -13 -52 -32 -138 -41 -190 -10 -52 -21 -113 -26 -135 -35 -154 -120
-920 -133 -1204 -4 -88 -13 -82 -90 59 -16 30 -47 84 -67 120 -21 36 -52 92
-70 125 -136 251 -248 348 -399 347 -39 -1 -88 -6 -110 -12 -60 -16 -159 -88
-214 -156 -27 -32 -101 -124 -165 -204 -64 -79 -139 -172 -167 -205 -27 -34
-124 -153 -214 -266 -91 -112 -201 -248 -245 -303 -98 -119 -379 -469 -421
-522 -16 -21 -57 -70 -90 -109 -33 -40 -81 -98 -107 -131 -25 -32 -85 -106
-132 -164 -153 -189 -289 -449 -341 -650 -9 -36 -25 -90 -35 -120 -63 -188
-171 -854 -186 -1150 -7 -146 -13 -190 -27 -190 -6 0 -92 81 -192 179 -158
157 -188 183 -250 211 -66 30 -75 32 -158 27 -72 -4 -99 -10 -150 -35 -82 -41
-99 -58 -286 -290 -88 -108 -193 -237 -233 -287 -41 -49 -177 -218 -303 -375
-126 -157 -252 -313 -280 -346 -27 -34 -71 -88 -97 -120 -25 -33 -109 -135
-185 -228 -133 -163 -310 -382 -477 -592 -44 -54 -93 -115 -110 -134 -40 -46
-89 -107 -167 -205 -34 -44 -83 -105 -107 -135 -25 -30 -51 -70 -58 -87 -12
-28 -15 -607 -17 -3635 l-2 -3603 27 -50 c59 -112 90 -124 383 -141 127 -8
327 -18 445 -24 118 -5 294 -14 390 -19 422 -25 1104 -61 2000 -106 272 -14
581 -29 685 -35 105 -6 399 -22 655 -35 256 -14 591 -32 745 -40 299 -16 605
-20 787 -10 89 5 122 11 158 29 l45 23 275 -19 c337 -23 850 -18 908 9 28 13
53 14 160 7 129 -9 411 -10 1010 -2 l333 5 46 32 45 32 147 -16 c80 -8 223
-24 316 -36 152 -18 230 -20 733 -20 l563 0 44 25 c40 24 53 37 104 106 l19
24 73 -16 c41 -9 173 -38 294 -63 121 -26 258 -56 305 -68 74 -19 118 -22 349
-25 287 -4 303 -1 347 51 l25 30 -3 359 c-2 278 0 358 9 358 7 0 15 -12 19
-27 34 -154 122 -322 216 -410 18 -17 112 -81 209 -141 97 -61 210 -132 250
-158 145 -93 94 -86 699 -94 360 -4 546 -3 569 4 23 7 89 62 199 168 91 87
168 158 172 158 4 0 10 -54 13 -121 6 -111 8 -124 33 -156 45 -59 66 -63 327
-63 222 0 238 1 318 26 46 14 152 45 234 70 83 24 202 59 265 78 63 19 118 32
122 30 5 -3 15 -21 22 -39 18 -42 90 -121 130 -143 27 -14 61 -16 241 -14 211
3 352 20 785 97 l84 15 41 -40 c23 -22 57 -45 75 -50 45 -13 1006 -13 1155 0
61 5 175 16 254 25 143 15 145 15 188 -6 44 -21 45 -21 696 -15 635 6 853 14
1162 41 136 12 152 12 175 -3 22 -15 60 -17 280 -18 140 0 341 5 445 12 105 7
305 20 445 28 140 9 397 25 570 36 173 11 392 24 485 30 228 14 465 29 550 36
84 6 587 37 1035 64 546 33 958 59 1110 70 80 6 224 15 320 21 96 5 198 12
225 14 28 2 95 7 149 10 139 9 211 49 251 139 l23 51 3 2390 c2 1315 6 2399
10 2410 4 13 35 33 85 55 44 18 116 51 161 72 46 21 85 38 88 38 3 0 45 18 93
41 48 23 121 56 162 74 149 65 267 126 288 148 11 12 30 41 42 64 l22 43 -1
941 c-2 764 -4 948 -15 974 -8 18 -60 86 -116 151 -109 127 -432 501 -515 595
-27 32 -93 108 -145 169 -52 62 -126 149 -165 193 -38 44 -104 119 -145 167
-178 208 -241 281 -340 394 -58 66 -116 134 -130 152 -14 17 -72 85 -130 151
-58 66 -141 162 -185 213 -83 98 -239 278 -380 440 -97 112 -321 373 -419 488
-58 68 -78 85 -123 102 -30 11 -58 20 -62 20 -5 0 -12 22 -16 49 -3 26 -15 61
-24 77 -17 27 -114 139 -275 319 -99 109 -213 238 -261 294 -22 25 -94 107
-160 181 -66 75 -183 207 -260 295 -77 88 -160 182 -185 210 -25 27 -75 84
-110 125 -36 41 -139 158 -229 260 -91 102 -180 203 -199 225 -20 22 -70 79
-113 126 -43 47 -89 99 -101 115 -12 16 -25 31 -28 34 -6 6 -153 171 -191 215
-280 322 -307 345 -405 345 -117 -1 -166 -42 -286 -246 -40 -68 -78 -124 -85
-124 -13 0 -15 9 -39 155 -40 251 -150 717 -198 842 -47 125 -122 278 -169
348 -47 70 -45 67 -354 410 -59 67 -196 219 -303 340 -107 120 -242 271 -300
334 -102 113 -171 190 -355 396 -301 337 -527 584 -561 613 -54 45 -130 66
-218 60 -108 -7 -187 -56 -256 -159 -80 -116 -93 -150 -215 -534 -31 -99 -71
-225 -88 -279 -18 -55 -37 -101 -43 -103 -13 -4 -21 322 -29 1292 -3 341 -9
634 -12 650 -9 51 -32 84 -126 187 -51 55 -114 126 -142 157 -27 32 -131 147
-230 256 -99 109 -222 245 -273 302 -51 57 -106 110 -122 118 -49 25 -143 30
-194 11 -74 -28 -119 -90 -136 -186 -4 -25 -35 -180 -69 -345 -34 -165 -66
-322 -71 -350 -5 -27 -20 -104 -34 -170 -14 -66 -66 -329 -116 -585 -50 -256
-97 -494 -105 -530 -8 -36 -33 -162 -55 -280 -22 -118 -44 -228 -48 -243 -13
-50 -27 -34 -33 38 -3 39 -11 117 -17 175 -15 138 -38 383 -57 600 -29 340
-65 757 -80 915 -9 88 -24 255 -35 370 -84 931 -170 1462 -309 1920 -23 78
-116 281 -160 350 -27 43 -105 136 -231 275 -203 225 -273 303 -362 405 -78
90 -109 118 -169 152 -83 47 -167 62 -236 44 -103 -28 -206 -142 -271 -301
-39 -96 -107 -373 -126 -515 -8 -60 -22 -162 -30 -225 -22 -161 -41 -411 -71
-910 -37 -638 -46 -768 -61 -825 -10 -44 -12 -19 -13 205 -1 241 -15 679 -26
855 -29 433 -46 684 -50 705 -3 14 -9 88 -15 165 -17 239 -39 458 -84 845 -34
283 -50 380 -116 710 -48 238 -150 569 -215 700 -34 67 -100 144 -148 170 -53
30 -123 33 -427 15z m409 -131 c36 -32 61 -68 90 -127 50 -105 100 -231 111
-282 5 -22 27 -110 49 -195 42 -166 50 -202 81 -380 11 -63 25 -133 30 -155 5
-22 21 -150 36 -285 14 -135 30 -283 35 -330 43 -397 73 -739 94 -1060 9 -129
20 -280 24 -335 5 -55 9 -156 10 -225 1 -69 6 -219 11 -335 5 -115 12 -451 15
-745 5 -505 12 -978 20 -1350 2 -91 6 -426 10 -745 3 -319 10 -796 15 -1060 5
-264 12 -761 15 -1105 3 -344 8 -692 10 -775 2 -82 7 -330 10 -550 3 -220 7
-569 10 -775 3 -206 12 -879 20 -1495 8 -616 17 -1217 20 -1335 2 -118 7 -494
10 -835 3 -341 7 -676 10 -745 2 -69 7 -318 10 -555 8 -684 14 -1080 27 -1855
16 -956 16 -2633 0 -2840 -7 -85 -19 -243 -27 -350 -8 -107 -17 -229 -20 -270
-47 -679 -159 -1184 -308 -1392 -36 -50 -101 -80 -176 -82 -31 0 -429 3 -886
8 -786 8 -832 9 -867 27 -20 10 -44 19 -51 19 -88 0 -232 320 -297 655 -44
234 -69 373 -80 455 -53 408 -53 403 -85 700 -8 74 -17 180 -20 235 -4 55 -11
159 -16 230 -12 166 -27 396 -34 505 -2 47 -7 312 -10 590 -3 278 -8 537 -10
575 -2 39 -7 309 -10 600 -8 793 -15 1259 -20 1360 -3 50 -7 342 -10 650 -3
308 -10 736 -15 950 -5 215 -9 437 -10 495 -6 642 -34 2487 -50 3250 -5 272
-12 752 -16 1065 -3 314 -7 611 -9 660 -2 50 -9 423 -14 830 -6 407 -15 976
-21 1265 -6 289 -15 829 -21 1200 -6 371 -14 846 -18 1055 -11 601 -6 2447 8
2535 6 41 16 190 21 330 6 140 17 332 25 425 8 94 19 226 25 295 5 69 14 157
20 195 10 73 28 217 36 295 3 25 14 95 25 155 11 61 26 146 34 190 26 155 57
279 105 421 50 150 76 204 132 267 32 37 36 39 118 47 47 5 207 14 355 20 149
7 284 13 300 15 17 2 84 5 150 6 66 1 172 6 235 11 125 10 438 24 591 26 l97
2 51 -46z m-2467 -979 c22 -15 40 -37 46 -57 15 -49 22 -270 23 -793 1 -258 5
-558 10 -665 14 -350 18 -624 20 -1360 2 -399 6 -815 10 -925 4 -110 10 -532
14 -937 6 -558 5 -744 -4 -765 -7 -15 -27 -39 -45 -53 -19 -14 -114 -99 -213
-190 -99 -91 -251 -230 -338 -310 -88 -80 -194 -179 -237 -220 l-79 -75 11
-400 c5 -220 10 -555 10 -745 0 -190 5 -511 10 -715 5 -203 11 -651 14 -995 4
-344 9 -740 11 -880 11 -512 14 -706 20 -1265 3 -313 8 -671 10 -795 3 -124
12 -688 20 -1255 8 -566 17 -1167 20 -1335 2 -168 7 -512 11 -765 3 -253 7
-532 9 -620 2 -88 6 -414 9 -725 4 -311 8 -668 11 -795 9 -447 16 -828 25
-1560 6 -407 12 -861 15 -1010 14 -850 16 -1231 6 -1257 -6 -16 -27 -36 -53
-49 -40 -20 -55 -22 -243 -20 -110 0 -301 4 -423 7 l-224 7 -24 26 c-14 14
-29 42 -34 61 -5 19 -13 379 -19 800 -6 421 -13 929 -16 1130 -12 832 -25
1729 -30 2095 -5 378 -10 714 -20 1400 -3 182 -7 510 -10 730 -3 220 -10 648
-15 950 -5 303 -12 793 -15 1090 -4 297 -8 608 -10 690 -2 83 -6 362 -9 620
-15 1216 -19 1480 -22 1486 -1 3 -6 248 -9 545 -3 296 -10 807 -15 1134 -5
327 -12 798 -16 1045 -4 248 -8 452 -10 454 -2 2 -27 -19 -56 -47 -46 -44
-163 -150 -313 -282 -22 -19 -67 -60 -100 -90 -77 -72 -221 -198 -263 -233
-56 -45 -129 -32 -177 31 -19 25 -20 49 -27 357 -3 182 -9 638 -13 1015 -3
377 -8 694 -10 705 -2 11 -6 270 -9 575 -9 899 -16 1387 -22 1691 -5 223 -4
291 6 310 14 25 223 290 375 474 51 61 155 189 232 285 78 96 187 231 243 300
56 69 162 199 236 290 73 91 210 260 304 375 94 116 242 297 328 404 86 106
173 213 192 236 19 24 98 121 175 217 76 95 173 214 215 263 42 50 128 156
192 236 109 136 134 159 198 182 21 7 49 -1 92 -28z m3875 -602 c60 -25 96
-54 168 -138 38 -44 86 -98 106 -120 20 -22 61 -67 91 -101 29 -34 116 -132
193 -218 77 -87 159 -183 183 -214 92 -122 167 -307 227 -557 56 -238 64 -273
76 -345 7 -41 14 -86 16 -100 2 -14 10 -65 17 -115 30 -194 65 -457 80 -600
58 -529 64 -597 71 -702 3 -55 8 -112 11 -125 3 -12 9 -91 14 -173 5 -83 14
-174 20 -204 5 -30 10 -83 10 -120 0 -36 5 -97 11 -136 5 -38 14 -122 19 -185
16 -193 59 -698 69 -815 6 -60 18 -189 26 -285 9 -96 22 -245 30 -330 8 -85
26 -288 40 -450 13 -162 31 -367 40 -455 8 -88 22 -236 30 -330 9 -93 20 -215
25 -270 16 -167 38 -420 55 -625 8 -107 22 -265 30 -350 8 -85 22 -229 30
-320 15 -155 20 -211 45 -500 6 -63 17 -187 25 -275 8 -88 19 -218 24 -290 6
-71 15 -175 21 -230 15 -145 49 -530 60 -675 5 -69 16 -201 25 -295 8 -93 22
-242 29 -330 8 -88 24 -263 36 -390 11 -126 34 -383 50 -570 17 -187 35 -387
40 -445 6 -58 15 -157 20 -220 6 -63 17 -185 25 -270 16 -177 29 -324 50 -560
9 -91 20 -208 25 -260 5 -52 16 -183 25 -290 8 -107 22 -262 30 -345 8 -82 17
-198 21 -256 3 -59 10 -113 16 -120 6 -9 7 -1 4 26 -3 22 -8 463 -12 980 -3
517 -7 969 -8 1005 -2 36 -6 373 -10 750 -3 377 -13 1137 -21 1690 -16 1132
-31 2326 -45 3660 -5 498 -12 1020 -15 1160 -3 140 -10 725 -15 1300 -5 575
-13 1145 -16 1267 -9 289 3 327 109 347 68 13 96 -9 272 -209 39 -44 115 -129
170 -191 344 -382 460 -515 478 -550 14 -26 17 -174 26 -1225 6 -656 15 -1597
21 -2089 11 -1019 16 -1508 30 -3015 6 -588 15 -1486 21 -1995 5 -509 14
-1361 19 -1895 5 -533 16 -1665 25 -2515 16 -1435 16 -2801 1 -2965 -12 -128
-46 -499 -57 -605 -5 -58 -19 -159 -30 -225 -11 -66 -24 -145 -29 -175 -30
-198 -62 -317 -130 -485 -51 -126 -85 -187 -134 -242 -37 -41 -55 -53 -98 -63
-62 -15 -676 -30 -723 -18 -49 13 -127 69 -165 120 -36 48 -110 214 -155 347
-14 41 -43 165 -65 275 -22 111 -44 224 -50 251 -15 76 -58 443 -70 595 -5 74
-15 180 -20 235 -6 55 -22 233 -36 395 -14 162 -32 369 -40 460 -8 91 -25 291
-39 445 -66 763 -65 750 -125 1435 -11 124 -27 304 -35 400 -9 96 -27 303 -40
460 -14 157 -29 335 -35 395 -9 104 -24 279 -70 800 -10 121 -26 303 -35 405
-8 102 -22 255 -30 340 -8 85 -22 234 -30 330 -8 96 -22 252 -30 345 -8 94
-26 303 -40 465 -14 162 -29 340 -35 395 -5 55 -14 156 -20 225 -14 169 -28
323 -40 455 -6 61 -15 164 -20 231 -10 131 -43 507 -116 1309 -14 154 -29 334
-34 400 -5 66 -14 163 -20 215 -5 52 -16 178 -25 280 -9 102 -22 257 -30 345
-8 88 -19 214 -25 280 -6 66 -17 188 -25 270 -8 83 -24 268 -37 412 -12 144
-24 261 -26 259 -4 -5 -2 -831 2 -871 2 -16 7 -383 10 -815 3 -432 8 -886 11
-1010 3 -124 7 -412 10 -640 3 -228 7 -561 10 -740 3 -179 7 -586 10 -905 3
-319 8 -638 10 -710 2 -71 7 -418 10 -770 3 -352 10 -890 15 -1195 5 -305 12
-796 15 -1090 3 -294 7 -679 10 -855 6 -407 13 -919 25 -2015 6 -481 12 -895
15 -920 3 -25 5 -254 6 -509 l1 -463 -27 -28 c-15 -16 -40 -34 -55 -40 -19 -8
-146 -10 -426 -8 -359 3 -402 5 -431 21 -72 39 -65 -67 -84 1326 -9 691 -20
1420 -23 1621 -14 817 -17 1062 -31 2135 -8 616 -17 1257 -20 1425 -3 168 -7
510 -10 760 -3 250 -8 561 -10 690 -3 129 -14 883 -25 1675 -11 792 -22 1526
-25 1630 -3 105 -10 566 -15 1025 -5 459 -12 952 -15 1095 -2 143 -7 460 -10
705 -3 245 -10 715 -15 1045 -5 330 -12 832 -16 1115 -3 283 -10 706 -14 940
-22 1295 -1 2255 61 2750 10 85 24 201 29 258 16 149 34 243 70 357 18 55 36
116 42 135 16 55 94 213 115 232 11 10 44 31 74 48 59 33 102 34 176 3z
m-7116 -3425 c61 -20 116 -66 146 -120 36 -63 95 -208 122 -299 59 -198 123
-577 135 -794 2 -38 7 -81 10 -95 4 -14 11 -88 16 -165 6 -77 15 -183 19 -235
5 -52 11 -230 12 -395 2 -165 6 -379 10 -475 4 -96 10 -517 13 -935 4 -418 9
-805 11 -860 8 -215 15 -649 20 -1290 3 -368 8 -767 10 -885 6 -299 14 -948
20 -1575 3 -291 8 -555 10 -585 3 -30 7 -300 10 -600 7 -712 14 -1267 20
-1460 3 -85 7 -402 10 -705 7 -698 13 -1203 20 -1515 3 -135 7 -436 10 -670 3
-234 8 -632 11 -885 7 -481 -4 -920 -32 -1245 -8 -96 -16 -186 -19 -200 -2
-14 -7 -61 -10 -105 -14 -200 -77 -637 -104 -730 -5 -16 -12 -51 -15 -77 -3
-26 -10 -56 -15 -65 -5 -10 -17 -49 -27 -88 -39 -159 -125 -320 -196 -371 -90
-66 -45 -63 -1009 -60 -670 2 -881 5 -904 15 -90 37 -162 104 -218 201 -31 55
-139 368 -172 499 -56 228 -107 587 -135 961 -36 468 -43 790 -65 2835 -3 286
-10 860 -16 1275 -5 415 -14 1178 -19 1695 -16 1563 -40 3443 -49 3925 -5 250
-10 716 -10 1035 0 758 18 1040 109 1730 6 44 18 118 26 165 8 47 19 110 24
140 19 123 50 245 132 510 54 175 103 281 163 355 27 33 141 175 254 315 112
140 225 280 251 310 46 55 428 526 485 599 17 21 102 128 191 237 88 110 231
287 318 394 199 247 227 276 273 288 53 14 114 14 154 0z m11127 -1027 c36
-19 132 -112 202 -196 18 -22 72 -83 119 -135 47 -52 104 -115 126 -140 22
-25 42 -47 45 -50 3 -3 102 -113 220 -245 118 -132 280 -312 360 -401 80 -88
193 -214 251 -280 59 -65 149 -166 200 -223 52 -57 123 -135 158 -175 35 -39
86 -96 114 -126 63 -69 133 -176 171 -260 15 -36 45 -102 66 -146 47 -99 88
-253 170 -634 11 -47 52 -293 75 -445 63 -414 94 -791 100 -1210 3 -170 7
-832 9 -1470 l5 -1160 -21 -42 c-35 -70 -108 -92 -167 -50 -105 74 -309 223
-537 394 -218 162 -265 201 -277 232 -12 29 -16 151 -22 656 -7 556 -9 621
-24 631 -9 7 -95 78 -191 159 -96 81 -195 164 -219 184 -24 20 -94 78 -155
130 -61 51 -122 103 -136 115 -94 78 -179 146 -185 146 -4 0 -4 -249 0 -552 7
-540 8 -554 29 -589 11 -20 100 -156 196 -302 196 -300 569 -869 794 -1214 83
-125 208 -318 279 -428 71 -110 158 -243 193 -296 35 -52 64 -99 64 -104 0 -4
20 -53 44 -109 74 -171 113 -269 124 -311 14 -51 56 -237 77 -340 9 -44 21
-98 27 -120 6 -22 14 -71 18 -110 4 -38 20 -164 34 -280 39 -310 45 -367 52
-505 4 -69 8 -138 10 -155 10 -88 24 -1769 26 -3105 3 -1396 1 -1542 -15
-1720 -10 -107 -22 -251 -27 -320 -17 -215 -102 -614 -177 -825 -59 -165 -155
-310 -232 -349 -57 -30 -203 -35 -1031 -37 l-835 -2 -57 25 c-46 22 -66 39
-111 100 -94 127 -153 260 -192 438 -9 41 -27 120 -40 175 -73 312 -152 1049
-170 1590 -8 253 -17 1034 -30 2570 -3 341 -8 679 -11 750 -9 195 13 248 109
261 53 8 53 8 452 -146 55 -21 150 -57 210 -79 155 -58 212 -87 230 -115 17
-26 18 -68 28 -1145 l2 -234 85 -22 c85 -22 246 -66 330 -90 41 -12 129 -37
364 -101 48 -13 93 -24 100 -24 12 0 12 147 3 792 l-5 308 -190 252 c-104 139
-221 294 -259 343 -81 107 -326 430 -542 715 -85 113 -202 268 -260 344 -59
76 -124 163 -146 192 -22 29 -58 77 -81 106 -55 72 -119 193 -153 292 -16 46
-35 96 -44 112 -24 48 -144 681 -176 934 -26 201 -43 362 -68 630 -12 141 -30
711 -33 1045 -1 204 -3 399 -5 435 -1 36 -5 405 -9 820 -4 415 -9 865 -11
1000 -2 135 -7 778 -11 1430 -8 1330 -5 1419 51 1905 8 66 20 154 28 195 8 41
18 104 22 140 4 36 21 101 37 145 16 44 38 107 49 139 86 254 242 367 397 287z
m-14121 -2735 c63 -30 126 -110 185 -234 65 -137 83 -209 148 -587 15 -85 49
-474 55 -620 4 -77 9 -491 20 -1495 11 -1010 25 -2149 30 -2415 2 -121 6 -510
10 -865 3 -355 7 -789 10 -965 12 -844 16 -1145 25 -1985 6 -498 13 -1053 16
-1235 11 -620 6 -1374 -10 -1655 -14 -241 -49 -571 -76 -725 -6 -33 -15 -89
-21 -125 -22 -150 -133 -506 -187 -600 -59 -103 -98 -145 -163 -177 l-64 -32
-225 -5 c-124 -3 -537 -6 -918 -7 l-693 -1 -40 27 c-80 52 -163 149 -209 242
-144 295 -194 493 -246 973 -21 185 -31 468 -33 905 -2 204 -4 415 -6 470 -3
55 -9 775 -15 1600 -5 825 -12 1664 -15 1865 -5 302 -23 2521 -26 3070 -2 368
22 794 61 1065 35 243 43 298 56 370 18 98 43 210 55 251 5 17 9 37 9 45 0 8
11 50 24 94 13 44 32 107 41 140 26 91 112 288 173 393 46 81 360 486 520 671
26 30 65 78 87 106 46 61 317 398 325 405 3 3 23 28 45 55 21 28 42 52 45 55
4 3 36 41 71 86 35 44 100 124 144 178 44 54 100 124 125 155 176 224 354 437
389 467 80 67 187 82 278 40z m16918 -386 c23 -11 53 -33 66 -48 167 -190 273
-310 328 -372 63 -70 655 -740 711 -804 42 -49 199 -227 270 -306 37 -41 119
-133 182 -205 63 -71 131 -148 150 -170 162 -183 305 -345 327 -370 42 -49
285 -320 291 -325 3 -3 19 -23 35 -44 27 -36 30 -46 33 -142 l4 -104 26 21
c21 16 34 19 67 13 22 -3 47 -10 56 -15 17 -8 112 -115 325 -364 149 -175 171
-200 390 -450 82 -93 158 -182 169 -196 11 -15 92 -109 180 -210 88 -100 232
-266 320 -369 88 -102 214 -248 280 -325 211 -244 269 -310 320 -370 28 -33
73 -85 100 -115 28 -31 113 -130 190 -220 77 -90 206 -239 287 -331 81 -92
151 -177 157 -188 8 -13 11 -309 11 -956 0 -806 -2 -940 -15 -965 -17 -33 -91
-66 -129 -56 -30 7 -215 166 -635 544 -69 62 -133 117 -142 122 -14 8 -16
-254 -23 -2955 -5 -2196 -9 -2971 -18 -2990 -6 -15 -32 -35 -62 -50 l-51 -25
-399 -1 c-377 -1 -400 0 -425 18 -14 11 -34 35 -43 54 -17 32 -18 217 -18
3440 l0 3407 -113 98 c-63 55 -172 149 -243 210 -71 62 -186 161 -255 220 -69
60 -171 149 -228 197 -56 49 -106 100 -111 113 -6 14 -10 45 -10 69 0 52 -9
60 -46 40 -47 -25 -90 -9 -174 65 -14 12 -90 76 -169 143 -79 67 -183 156
-230 197 -47 41 -124 107 -171 146 -104 87 -222 188 -253 214 -268 231 -453
387 -455 385 -2 -2 0 -351 4 -777 l7 -775 136 -7 c955 -45 947 -44 986 -102
19 -28 20 -57 25 -884 3 -470 5 -1114 5 -1430 0 -549 -1 -576 -19 -603 -10
-16 -35 -36 -55 -46 -20 -10 -270 -76 -555 -147 l-519 -129 7 -254 c3 -140 6
-332 6 -426 l0 -173 51 -16 c28 -9 69 -21 92 -25 23 -5 114 -30 202 -55 224
-64 315 -90 430 -121 55 -15 129 -35 165 -46 36 -10 155 -44 265 -75 240 -67
244 -68 282 -102 l30 -28 6 -819 c11 -1259 9 -1880 -4 -1909 -14 -29 -78 -77
-105 -77 -597 -9 -1509 -19 -1856 -20 -453 -2 -456 -2 -491 20 -22 13 -40 34
-46 54 -12 40 -19 705 -26 2412 -3 715 -7 1530 -10 1810 -3 281 -7 1086 -10
1790 -3 704 -8 1566 -11 1915 -16 1724 -30 5287 -21 5313 11 33 72 77 106 77
14 0 43 -9 66 -20z m-19948 -3375 c41 -21 65 -44 121 -120 57 -77 76 -112 100
-187 17 -51 35 -122 42 -158 6 -36 17 -96 25 -135 12 -61 19 -126 41 -370 12
-136 41 -3843 32 -4091 -9 -269 -35 -509 -84 -784 -70 -393 -152 -608 -307
-804 l-70 -89 13 -46 c7 -25 19 -77 26 -116 8 -38 18 -88 23 -110 36 -167 65
-292 82 -360 12 -44 27 -111 35 -150 7 -38 18 -88 23 -110 5 -22 21 -92 34
-155 14 -63 32 -142 40 -175 8 -33 22 -96 32 -140 9 -44 21 -93 25 -110 4 -16
16 -66 25 -110 9 -44 27 -125 40 -180 26 -108 66 -289 95 -425 10 -47 39 -175
65 -285 25 -110 53 -234 61 -275 8 -41 23 -109 34 -150 10 -41 27 -112 36
-157 16 -79 16 -83 -2 -114 -41 -69 -35 -68 -399 -79 -685 -20 -635 -20 -686
2 -26 10 -51 29 -57 41 -6 12 -96 371 -202 797 -105 426 -207 838 -227 915
-19 77 -44 176 -54 220 -21 87 -43 172 -64 250 -8 28 -15 61 -17 74 -3 21 -22
8 -188 -126 l-185 -149 0 -990 c0 -928 -1 -991 -18 -1017 -34 -52 -50 -55
-362 -61 -160 -4 -338 -9 -397 -12 -134 -6 -183 10 -216 73 -9 16 -12 908 -11
3605 0 1971 3 3591 7 3600 4 9 42 59 84 110 43 51 144 177 225 279 81 102 227
282 323 400 96 118 221 273 278 344 57 72 118 148 136 170 51 62 195 241 251
311 28 34 158 196 290 359 132 164 258 321 280 349 37 47 140 173 272 331 105
125 236 166 350 110z"/>
<path d="M20740 31009 c-149 -8 -670 -34 -990 -49 -219 -11 -513 -29 -516 -33
0 -1 -17 -31 -37 -67 -40 -73 -53 -108 -95 -265 -45 -168 -52 -204 -93 -500
-6 -38 -25 -171 -44 -295 -42 -279 -44 -295 -61 -645 -3 -66 -7 -133 -9 -149
-2 -16 -7 -97 -10 -180 -4 -83 -11 -191 -16 -241 -5 -49 -11 -268 -14 -485 -3
-217 -10 -530 -16 -695 -11 -292 -5 -958 11 -1300 6 -129 7 -104 9 175 4 762
12 1315 21 1450 5 80 12 195 15 255 3 61 10 169 15 240 5 72 17 249 25 395 14
241 25 336 55 515 6 33 22 134 35 225 61 414 71 466 132 655 29 92 96 221 122
234 10 6 91 12 182 16 90 3 187 8 214 10 28 3 201 12 385 20 184 9 450 22 590
29 170 9 262 10 276 4 28 -13 109 -157 128 -228 8 -30 28 -97 45 -148 16 -52
33 -113 36 -135 4 -23 11 -58 16 -77 4 -19 17 -84 29 -145 11 -60 22 -123 25
-140 4 -16 15 -77 25 -135 10 -58 26 -139 36 -180 21 -94 30 -161 48 -375 8
-93 18 -183 21 -200 3 -16 10 -82 15 -145 5 -63 16 -187 25 -275 52 -553 70
-1038 86 -2305 5 -470 12 -884 14 -920 2 -36 6 -362 9 -725 4 -363 9 -754 11
-870 5 -213 20 -1211 30 -2030 3 -247 7 -540 10 -650 14 -616 17 -1192 6
-1199 -6 -4 -32 8 -59 27 -78 56 -620 417 -637 423 -13 5 -15 -20 -15 -207 0
-118 4 -441 10 -719 9 -442 16 -934 36 -2380 2 -195 9 -578 14 -850 21 -1087
23 -1379 11 -1393 -9 -11 -65 -16 -254 -21 -133 -3 -380 -11 -549 -17 -232 -9
-311 -9 -322 0 -15 12 -16 45 -36 1296 -5 330 -12 724 -15 875 -3 151 -9 583
-15 960 -5 377 -12 793 -15 925 -3 132 -7 418 -10 635 -3 217 -12 728 -20
1135 -8 407 -17 1012 -21 1345 -3 333 -8 607 -9 610 -2 3 -6 228 -9 500 -3
272 -8 601 -11 730 -9 462 -25 1403 -31 1843 -4 247 -10 447 -15 447 -12 0
-12 -166 1 -845 13 -750 28 -1744 40 -2615 5 -393 12 -787 15 -875 2 -88 8
-434 11 -770 l7 -610 -39 -26 c-22 -14 -167 -114 -323 -223 -156 -108 -288
-198 -294 -199 -13 -2 -11 -31 -26 423 -7 201 -14 372 -16 380 -5 18 3 -955
10 -1240 3 -107 8 -440 11 -740 3 -300 7 -547 9 -550 2 -3 6 -234 9 -515 7
-619 15 -1106 21 -1400 12 -504 14 -668 21 -1225 3 -322 8 -605 10 -630 1 -25
5 -265 8 -535 6 -454 14 -908 22 -1100 2 -44 6 -195 9 -335 5 -244 10 -414 20
-620 2 -52 7 -187 10 -300 6 -213 30 -543 44 -595 4 -16 9 -55 10 -85 1 -30 7
-86 12 -125 6 -38 14 -117 19 -175 6 -58 14 -130 19 -160 5 -30 10 -80 10
-110 1 -30 15 -118 31 -195 128 -612 141 -666 181 -752 46 -99 78 -142 121
-164 36 -18 74 -20 746 -29 1045 -14 962 -16 1006 19 64 51 141 232 191 453 7
31 15 60 18 65 3 4 11 44 17 88 7 44 18 118 26 165 7 47 18 130 24 185 5 55
14 136 20 181 5 44 10 117 10 161 0 45 4 115 9 155 6 40 13 134 16 208 4 74
11 155 16 180 10 45 24 928 24 1465 -1 419 -14 1597 -20 1820 -3 105 -10 630
-15 1169 -6 538 -12 982 -15 986 -3 4 -7 302 -10 662 -3 359 -10 889 -15 1178
-6 289 -15 905 -21 1370 -5 465 -12 881 -14 925 -3 79 -9 481 -21 1455 -4 278
-10 642 -14 810 -4 168 -8 522 -9 787 -1 265 -3 488 -5 495 -5 14 -11 406 -27
1728 -5 465 -12 869 -14 899 -2 30 -5 219 -6 420 -1 328 -6 507 -23 756 -3 44
-8 159 -12 255 -3 96 -10 197 -15 224 -5 27 -9 135 -9 240 0 179 -5 259 -30
516 -6 58 -17 173 -25 255 -8 83 -19 195 -24 250 -6 55 -15 154 -21 220 -20
221 -28 269 -140 850 -21 110 -41 220 -45 245 -4 25 -25 99 -46 165 -21 66
-39 125 -39 130 0 12 -59 129 -92 183 -15 24 -26 32 -46 30 -15 0 -88 -4 -162
-9z"/>
<path d="M18852 25920 c0 -19 2 -27 5 -17 2 9 2 25 0 35 -3 9 -5 1 -5 -18z"/>
<path d="M18853 25820 c0 -36 2 -50 4 -32 2 17 2 47 0 65 -2 17 -4 3 -4 -33z"/>
<path d="M18859 25634 c-1 -125 3 -680 6 -821 2 -87 7 -313 10 -503 4 -189 9
-347 12 -350 10 -9 -13 1708 -23 1719 -2 2 -4 -18 -5 -45z"/>
<path d="M20355 25539 c-66 -4 -203 -13 -304 -19 -102 -6 -218 -13 -259 -17
l-75 -6 8 -256 c12 -377 12 -353 19 -1061 3 -360 8 -702 11 -760 6 -146 14
-562 26 -1410 6 -399 12 -754 14 -790 2 -36 6 -351 9 -700 7 -635 11 -900 21
-1340 3 -129 8 -482 11 -785 3 -302 8 -552 9 -556 2 -3 6 -248 9 -545 4 -296
8 -611 11 -699 3 -88 8 -365 11 -615 4 -250 8 -458 10 -461 2 -4 4 -177 4
-386 1 -210 4 -450 7 -535 l6 -155 76 2 c330 13 443 17 486 21 28 2 110 3 183
4 l134 0 -6 398 c-4 218 -11 600 -16 847 -5 248 -12 662 -15 920 -3 259 -7
524 -10 590 -3 66 -7 314 -10 550 -12 962 -25 1755 -30 1830 -2 44 -7 350 -11
680 -3 330 -8 602 -10 606 -1 3 -8 387 -14 855 -6 467 -13 869 -15 894 -2 25
-6 295 -9 600 -4 305 -8 627 -11 715 -3 88 -8 349 -11 580 -4 231 -8 431 -9
445 -1 14 -3 148 -3 298 l-2 272 -62 -1 c-35 -1 -117 -6 -183 -10z m216 -7349
c4 -69 9 -359 13 -645 3 -286 8 -608 11 -715 9 -316 29 -1733 30 -2010 l0
-255 -95 -7 c-112 -7 -300 -12 -304 -7 -6 6 -16 491 -31 1504 -8 534 -17 1051
-20 1150 -8 288 -18 1085 -14 1086 14 5 323 26 359 25 l45 -1 6 -125z"/>
<path d="M18881 23808 c-1 -31 4 -60 9 -63 12 -7 12 58 0 95 -6 19 -8 12 -9
-32z"/>
<path d="M18891 23695 c-6 -98 3 -911 14 -1295 3 -91 6 -235 6 -320 1 -85 4
-139 8 -120 8 44 -6 1271 -17 1560 -5 118 -10 197 -11 175z"/>
<path d="M18915 21550 c3 -206 8 -458 10 -560 3 -102 5 -254 7 -338 1 -84 6
-156 11 -159 14 -9 -9 1376 -24 1411 -5 13 -7 -130 -4 -354z"/>
<path d="M18931 20453 c0 -10 4 -27 9 -38 7 -16 9 -13 9 18 1 20 -3 37 -9 37
-5 0 -10 -8 -9 -17z"/>
<path d="M18943 20325 c0 -27 2 -38 4 -22 2 15 2 37 0 50 -2 12 -4 0 -4 -28z"/>
<path d="M18365 29862 c-55 -69 -136 -169 -180 -222 -44 -53 -89 -108 -100
-122 -11 -14 -51 -64 -90 -113 -38 -48 -96 -118 -128 -156 -32 -39 -126 -154
-208 -257 -82 -103 -169 -209 -193 -237 -24 -27 -63 -75 -87 -105 -23 -30 -51
-63 -60 -75 -24 -29 -138 -168 -179 -220 -98 -124 -362 -447 -398 -490 -10
-11 -53 -65 -97 -120 -43 -55 -82 -102 -85 -105 -6 -5 -58 -69 -305 -375 -49
-60 -121 -148 -160 -195 -39 -47 -95 -115 -123 -151 l-52 -67 0 -293 c1 -162
5 -460 10 -664 5 -203 12 -705 16 -1115 3 -410 9 -848 14 -975 4 -126 8 -378
9 -560 4 -719 6 -905 12 -902 4 1 53 45 110 98 57 52 126 115 154 140 156 139
472 427 530 483 33 32 50 51 37 43 -26 -17 -151 -128 -282 -252 -47 -44 -128
-118 -180 -165 -52 -47 -130 -118 -173 -159 -49 -46 -82 -70 -88 -64 -6 6 -13
365 -19 899 -5 489 -12 1008 -15 1154 -3 146 -7 366 -10 490 -2 124 -6 460 -7
746 l-3 521 50 64 c27 35 66 84 87 109 50 60 239 292 488 600 113 139 268 330
345 424 77 94 217 265 310 380 94 115 204 251 245 301 41 51 149 184 240 296
90 112 198 245 240 294 42 50 137 167 212 260 143 179 192 232 201 218 3 -5 8
-160 12 -343 3 -184 10 -567 15 -850 5 -283 13 -774 16 -1090 4 -316 8 -595 9
-620 1 -25 4 -254 8 -510 4 -256 10 -612 13 -793 5 -251 3 -331 -6 -342 -7 -8
-8 -15 -4 -15 5 0 15 9 22 21 11 17 12 69 8 243 -14 513 -16 644 -22 1301 -3
380 -10 805 -14 945 -4 140 -8 478 -9 750 -1 272 -4 601 -7 730 -3 129 -9 482
-13 783 -5 301 -10 550 -12 551 -2 2 -49 -53 -104 -122z"/>
<path d="M18455 24608 l-40 -43 43 40 c23 21 42 40 42 42 0 8 -9 0 -45 -39z"/>
<path d="M18360 24527 c-25 -23 -125 -116 -222 -206 -98 -89 -178 -166 -178
-169 0 -3 15 8 33 24 17 17 88 82 157 145 150 137 267 249 260 249 -3 0 -25
-19 -50 -43z"/>
<path d="M17829 24042 c-57 -53 -133 -123 -168 -154 l-64 -57 7 -253 c11 -446
16 -742 21 -1233 3 -264 9 -777 15 -1140 22 -1468 30 -2025 32 -2334 3 -309 2
-324 -16 -335 -10 -6 -145 -95 -300 -198 -155 -103 -284 -184 -288 -180 -3 4
-11 372 -17 817 -6 446 -13 855 -16 910 -2 55 -7 296 -10 535 -3 239 -7 617
-10 840 -17 1350 -19 1427 -40 1520 -8 36 -23 101 -33 145 l-18 80 1 -255 c1
-140 3 -464 4 -720 2 -256 7 -562 11 -680 5 -118 11 -638 15 -1155 4 -517 9
-942 10 -945 2 -3 6 -284 9 -625 3 -341 8 -732 11 -870 3 -137 7 -396 10 -575
3 -179 7 -487 10 -685 3 -198 12 -873 20 -1500 8 -627 19 -1412 25 -1745 5
-333 12 -812 15 -1065 3 -253 9 -746 15 -1095 5 -349 12 -878 16 -1175 3 -297
9 -684 13 -860 l6 -320 30 -3 c81 -8 652 -18 674 -12 l25 6 -3 535 c-2 293 -5
537 -7 540 -2 3 -4 163 -6 355 -1 192 -5 486 -9 654 -3 168 -9 564 -13 880 -4
316 -9 663 -11 770 -3 107 -9 575 -15 1040 -5 465 -12 913 -15 995 -3 83 -7
355 -10 605 -3 250 -10 757 -15 1125 -26 1689 -34 2195 -35 2260 -1 39 -5 302
-9 585 -4 283 -13 916 -21 1405 -8 490 -17 1115 -21 1390 -3 275 -7 507 -9
515 -2 9 -6 326 -10 705 -3 380 -9 697 -11 706 -2 9 -1 25 3 37 7 19 107 115
258 249 32 29 56 55 54 58 -3 2 -52 -39 -110 -93z"/>
<path d="M22286 29358 c-35 -40 -52 -73 -77 -147 -17 -53 -33 -108 -35 -123
-2 -14 -13 -61 -24 -104 -30 -112 -49 -227 -55 -340 -3 -55 -10 -126 -15 -159
-18 -117 -22 -187 -11 -180 6 3 11 13 11 21 0 38 56 236 85 299 29 64 102 155
124 155 5 0 29 -9 53 -20 35 -15 81 -59 204 -197 88 -98 186 -207 219 -243
169 -183 235 -269 298 -386 34 -65 70 -144 79 -174 91 -305 138 -517 183 -825
2 -11 11 -69 20 -130 18 -119 41 -319 80 -695 9 -80 20 -179 25 -220 5 -41 12
-118 15 -170 4 -52 15 -189 26 -305 11 -115 28 -309 39 -430 11 -121 24 -267
30 -325 5 -58 15 -170 20 -249 6 -79 13 -154 15 -165 3 -12 9 -77 15 -146 5
-69 14 -174 20 -235 31 -332 33 -354 50 -575 6 -80 16 -188 21 -240 6 -52 14
-149 19 -215 4 -66 11 -136 14 -155 3 -19 11 -89 16 -155 54 -639 71 -836 75
-870 2 -22 7 -74 10 -115 3 -41 10 -118 15 -170 14 -142 37 -401 65 -725 14
-159 32 -362 40 -450 8 -88 26 -293 40 -455 14 -162 32 -367 40 -455 8 -88 22
-241 30 -340 9 -99 27 -301 41 -450 14 -148 29 -324 34 -390 5 -66 15 -169 21
-228 8 -69 8 -112 2 -118 -6 -6 -56 20 -139 72 -71 45 -187 119 -259 164 -71
45 -170 108 -219 139 -49 30 -92 54 -95 51 -4 -2 -4 -37 0 -77 4 -40 15 -154
24 -253 8 -99 20 -229 25 -290 6 -60 24 -265 40 -455 17 -190 35 -397 40 -460
6 -63 15 -173 20 -245 5 -71 12 -143 15 -160 2 -16 9 -86 15 -155 5 -69 17
-206 25 -305 9 -99 20 -234 25 -300 11 -137 52 -602 75 -840 8 -88 22 -243 30
-345 8 -102 20 -232 25 -290 5 -58 17 -184 25 -280 18 -206 37 -427 65 -750
11 -129 29 -338 40 -465 18 -209 32 -363 60 -680 12 -135 92 -1065 105 -1220
6 -72 38 -389 65 -650 38 -360 33 -330 110 -710 25 -121 28 -132 97 -320 54
-149 55 -150 121 -213 l67 -64 270 6 c305 7 330 9 365 34 14 10 32 21 41 24 9
4 36 46 61 95 38 73 57 135 116 373 40 157 76 326 82 375 6 50 17 153 26 230
8 77 22 196 30 265 21 177 31 387 41 845 10 488 10 496 0 1290 -4 352 -12
1099 -17 1660 -22 2263 -40 3998 -45 4320 -2 187 -7 624 -10 970 -3 347 -10
943 -15 1325 -5 382 -12 1042 -15 1465 -5 795 -13 1476 -20 1860 -2 121 -7
666 -11 1210 l-7 990 -31 40 c-17 22 -83 96 -146 165 -63 69 -153 168 -200
220 -46 52 -132 147 -190 210 -58 63 -123 136 -144 163 -21 26 -41 47 -45 47
-3 0 -5 -152 -3 -337 l3 -338 48 -50 c26 -27 65 -71 87 -96 21 -25 144 -161
272 -303 l232 -257 0 -397 c1 -218 3 -419 5 -447 2 -27 7 -390 10 -805 3 -415
8 -912 10 -1105 3 -192 7 -645 10 -1005 9 -1140 15 -1702 20 -2155 3 -242 7
-690 10 -995 3 -305 8 -783 11 -1062 5 -431 4 -508 -8 -508 -8 0 -39 15 -69
33 -30 18 -160 98 -289 176 -129 79 -239 146 -244 149 -5 3 -6 -201 -2 -489 4
-272 13 -1097 22 -1834 8 -737 16 -1435 18 -1552 3 -150 1 -216 -7 -228 -11
-14 -18 -13 -74 6 -34 11 -66 26 -71 32 -6 7 -26 194 -46 417 -20 223 -43 477
-51 565 -8 88 -22 243 -30 345 -9 102 -27 307 -40 455 -14 149 -38 425 -55
615 -16 190 -34 390 -40 445 -10 110 -35 386 -49 565 -12 140 -66 736 -86 950
-8 85 -17 187 -20 225 -6 86 -31 356 -50 565 -14 142 -41 450 -81 915 -8 99
-20 221 -25 270 -6 50 -14 142 -19 205 -5 63 -14 158 -19 210 -6 52 -17 181
-26 285 -9 105 -22 258 -30 340 -14 145 -41 441 -50 555 -4 52 -21 244 -65
740 -30 331 -39 428 -55 600 -8 85 -19 214 -25 285 -6 72 -17 202 -25 290 -24
253 -64 709 -85 965 -11 129 -24 280 -30 335 -5 55 -17 181 -25 280 -9 99 -20
225 -25 280 -6 55 -22 233 -36 395 -65 762 -102 1178 -119 1320 -8 69 -21 190
-30 270 -33 313 -68 565 -110 795 -8 44 -20 112 -26 150 -7 39 -18 87 -25 107
-7 20 -24 86 -39 145 -41 174 -80 280 -146 405 -60 115 -96 160 -308 393 -20
22 -90 101 -155 175 -206 233 -256 280 -300 280 -8 0 -35 -23 -60 -52z"/>
<path d="M22761 23782 c0 -81 -5 -188 -11 -237 -11 -86 -10 -192 6 -810 3
-115 9 -590 14 -1055 5 -465 11 -971 14 -1125 3 -154 8 -617 11 -1030 3 -412
8 -779 10 -815 3 -36 1 -71 -4 -79 -10 -15 -17 -10 -437 267 -136 89 -250 160
-253 156 -8 -8 -3 -711 9 -1384 6 -294 15 -897 20 -1340 10 -812 31 -2381 50
-3680 5 -388 14 -1105 20 -1595 6 -489 15 -1142 20 -1450 6 -308 10 -647 10
-752 l0 -193 333 0 c182 0 349 3 370 6 l37 7 -2 386 c-1 212 -5 548 -9 746 -3
198 -9 641 -13 985 -4 344 -11 913 -16 1265 -5 352 -14 1025 -20 1495 -5 470
-12 905 -15 965 -2 61 -7 427 -10 815 -3 388 -7 759 -10 825 -3 66 -7 350 -10
630 -8 698 -26 2020 -30 2130 -1 50 -6 432 -10 850 -4 418 -9 783 -11 810 -3
28 -7 313 -9 635 -5 586 -25 1723 -30 1770 -2 14 -4 233 -4 488 -1 279 -5 462
-10 462 -6 0 -10 -63 -10 -148z"/>
<path d="M15212 25945 c-18 -13 -37 -25 -41 -27 -4 -2 -62 -70 -129 -153 -292
-363 -522 -646 -532 -655 -3 -3 -41 -50 -85 -105 -86 -108 -256 -317 -265
-325 -3 -3 -61 -75 -130 -160 -68 -85 -155 -193 -194 -240 -39 -46 -89 -107
-111 -136 -22 -28 -78 -98 -124 -155 -76 -95 -167 -257 -196 -350 -4 -13 -20
-49 -36 -80 -15 -31 -38 -103 -50 -160 -11 -57 -32 -156 -46 -219 -57 -262
-87 -439 -98 -565 -3 -44 -10 -107 -16 -140 -5 -33 -11 -85 -13 -115 -4 -57
-18 -184 -39 -350 -9 -70 -12 -437 -11 -1410 1 -723 4 -1417 7 -1543 4 -125 9
-512 12 -860 3 -347 10 -949 16 -1337 5 -388 18 -1528 29 -2535 26 -2429 38
-3382 45 -3450 6 -59 13 -176 25 -410 12 -244 24 -377 44 -495 24 -136 61
-392 72 -490 3 -25 9 -56 13 -70 5 -14 42 -125 82 -247 l73 -222 88 -89 88
-90 244 -11 c281 -13 1371 -14 1433 -2 96 19 177 133 214 303 11 51 27 116 35
143 15 52 34 135 60 265 27 128 84 603 84 693 0 32 6 90 14 130 9 45 17 180
22 357 10 403 12 1505 3 1955 -4 209 -10 630 -13 935 -4 305 -9 600 -11 655
-2 55 -6 386 -10 735 -3 349 -10 851 -15 1115 -5 264 -12 797 -15 1185 -3 388
-8 750 -10 805 -3 55 -7 280 -10 500 -7 524 -14 976 -20 1310 -3 149 -10 646
-15 1105 -5 459 -14 1071 -20 1360 -5 289 -12 746 -16 1015 -3 270 -10 497
-15 505 -6 9 -8 -59 -4 -180 2 -107 7 -384 10 -615 11 -885 15 -1222 20 -1560
3 -192 7 -552 10 -800 3 -247 7 -556 10 -685 3 -129 7 -464 10 -745 3 -280 7
-654 10 -830 3 -176 8 -507 11 -736 l6 -416 -116 -74 c-65 -41 -185 -118 -268
-172 -83 -53 -157 -97 -164 -97 -12 0 -14 54 -15 298 0 163 -2 317 -4 342 -1
25 -6 299 -9 610 -6 547 -11 872 -21 1450 -3 151 -8 460 -11 685 -3 226 -10
473 -14 550 l-7 140 -62 145 -62 145 6 -755 c3 -415 8 -879 10 -1030 3 -151
12 -774 20 -1385 28 -2096 34 -2570 40 -2880 2 -121 9 -618 14 -1105 6 -487
13 -948 15 -1026 3 -77 1 -146 -3 -153 -5 -7 -28 -17 -52 -22 -24 -5 -80 -20
-124 -34 -44 -13 -145 -42 -225 -65 -80 -23 -167 -49 -195 -58 -188 -58 -521
-149 -532 -145 -7 3 -15 15 -17 27 -3 11 -7 282 -11 601 -7 751 -24 2000 -30
2230 -2 98 -7 454 -10 790 -3 335 -10 846 -16 1135 -5 289 -11 755 -14 1035
-3 281 -10 724 -15 985 -5 261 -10 577 -10 701 l-1 227 28 33 27 34 -38 -35
-38 -35 7 -410 c4 -225 8 -531 10 -680 8 -771 16 -1364 20 -1570 3 -126 8
-543 11 -926 l7 -695 -99 -61 c-86 -52 -295 -181 -362 -224 -20 -12 -24 -12
-32 1 -5 8 -10 98 -10 200 0 102 -7 754 -15 1450 -8 696 -17 1501 -20 1790 -3
289 -8 608 -10 710 -7 248 -7 1009 -1 1019 3 4 6 131 7 282 1 151 5 308 10
349 20 190 28 261 38 335 5 44 17 150 26 235 20 191 19 186 40 290 9 47 23
114 30 150 76 390 83 418 168 604 78 173 116 239 195 337 135 168 245 304 353
435 126 153 270 332 645 794 404 499 508 623 553 656 55 40 70 42 105 9 l26
-24 0 40 c0 22 -9 68 -21 102 -19 56 -104 290 -131 359 -10 26 -64 69 -84 67
-5 0 -24 -11 -42 -24z"/>
<path d="M15554 24930 c3 -36 12 -136 20 -223 15 -172 28 -225 20 -81 -7 116
-34 358 -41 364 -3 3 -3 -24 1 -60z"/>
<path d="M15601 24344 c0 -11 3 -14 6 -6 3 7 2 16 -1 19 -3 4 -6 -2 -5 -13z"/>
<path d="M15613 24155 c0 -55 3 -147 7 -205 l7 -105 0 100 c0 55 -3 147 -7
205 l-7 105 0 -100z"/>
<path d="M14834 21302 c-37 -33 -517 -471 -776 -709 -103 -95 -184 -173 -180
-173 7 0 143 121 252 225 36 34 115 106 176 161 192 172 538 490 553 507 20
25 10 20 -25 -11z"/>
<path d="M14760 21031 c-25 -25 -96 -91 -159 -146 -62 -55 -130 -116 -150
-135 -21 -19 -82 -75 -136 -125 -54 -49 -157 -144 -228 -210 l-128 -120 1
-502 c0 -277 2 -508 5 -515 2 -7 9 -391 14 -853 6 -462 13 -982 16 -1155 3
-173 10 -666 15 -1095 5 -429 14 -1039 20 -1355 5 -316 12 -791 15 -1055 3
-264 8 -591 11 -726 l7 -247 41 13 c23 8 95 28 161 45 66 18 156 42 200 55 44
13 121 35 170 49 218 62 271 78 280 89 7 8 8 150 4 412 -4 220 -11 819 -17
1330 -6 512 -14 1013 -17 1115 -3 102 -9 577 -15 1055 -5 479 -12 904 -15 945
-2 41 -7 334 -10 650 -3 316 -10 773 -15 1015 -6 242 -13 681 -16 975 -4 294
-7 536 -8 536 0 1 -21 -19 -46 -45z"/>
<path d="M26294 24923 c-22 -20 -48 -70 -88 -168 -32 -77 -62 -151 -68 -165
-13 -32 -37 -129 -38 -153 0 -17 2 -17 26 2 39 31 72 26 125 -17 50 -39 106
-101 569 -617 313 -350 677 -756 869 -969 64 -72 155 -173 203 -225 81 -89 95
-110 183 -290 105 -211 93 -172 215 -701 25 -107 54 -281 91 -550 5 -36 16
-108 24 -160 8 -52 20 -171 25 -265 6 -93 15 -231 21 -305 9 -108 23 -1206 28
-2202 l1 -156 98 -74 c53 -41 103 -78 111 -83 12 -7 13 165 8 1221 -8 1541
-26 1995 -94 2399 -9 50 -17 104 -18 120 -2 17 -10 82 -19 145 -9 63 -18 133
-21 155 -3 22 -39 186 -80 365 l-75 325 -99 201 c-93 186 -106 207 -183 290
-46 49 -153 168 -238 264 -85 96 -190 213 -234 260 -43 47 -104 114 -134 150
-31 36 -81 92 -112 125 -30 33 -89 98 -130 145 -41 46 -102 114 -135 150 -33
36 -90 99 -127 140 -357 402 -566 629 -596 647 -48 30 -71 29 -108 -4z"/>
<path d="M26747 20593 c-4 -3 -7 -16 -7 -28 0 -27 -15 -64 -87 -215 l-55 -115
5 -693 6 -693 138 -211 c76 -116 170 -260 208 -320 80 -124 333 -512 544 -833
79 -121 180 -276 224 -345 44 -69 148 -228 231 -355 83 -126 161 -252 173
-280 134 -308 133 -304 179 -504 74 -319 84 -364 99 -498 9 -76 20 -167 25
-203 13 -85 12 -110 -1 -110 -10 0 -95 47 -349 193 -58 33 -136 78 -175 100
-38 22 -122 70 -185 107 -63 38 -245 144 -405 237 -159 94 -351 206 -425 250
-74 44 -191 113 -260 154 -69 40 -190 113 -270 161 -79 48 -146 85 -149 83 -2
-3 1 -30 8 -62 70 -356 63 -330 119 -463 22 -52 52 -124 67 -160 14 -36 31
-76 38 -90 13 -27 123 -174 662 -885 313 -413 703 -929 832 -1100 l53 -70 0
-651 c0 -530 -2 -653 -13 -657 -7 -3 -47 6 -88 19 -74 24 -127 39 -314 89 -55
15 -138 38 -185 51 -47 14 -116 33 -155 44 -92 25 -232 65 -321 90 l-72 20 -6
173 c-3 94 -7 410 -9 701 l-3 529 -119 44 c-250 92 -334 123 -455 168 -69 26
-132 49 -141 52 -15 4 -17 -20 -24 -232 -4 -131 -3 -535 2 -899 6 -363 11
-920 12 -1236 1 -320 8 -723 17 -910 8 -184 19 -432 24 -550 8 -192 37 -462
96 -905 17 -128 32 -191 129 -540 45 -162 64 -195 183 -308 l61 -58 743 6
c409 4 754 9 768 12 14 3 58 4 98 3 l72 -1 95 86 c67 63 96 96 101 119 3 17
32 112 64 211 74 229 76 235 95 390 9 72 25 186 35 255 28 184 38 311 45 545
4 116 10 280 15 365 4 85 4 637 0 1225 -5 589 -11 1448 -15 1910 -3 462 -7
869 -10 905 -2 36 -9 168 -15 294 -11 242 -74 793 -110 961 -88 407 -100 452
-170 619 -82 196 -108 243 -261 476 -149 227 -429 657 -527 808 -35 53 -122
187 -194 297 -72 110 -150 229 -173 265 -23 36 -95 146 -160 245 -247 378
-315 484 -324 508 -9 22 -28 1085 -25 1325 1 50 1 92 0 92 -2 0 -6 -3 -9 -7z"/>
<path d="M12235 22190 c-16 -4 -47 -11 -67 -14 -48 -9 -85 -40 -158 -135 -33
-42 -98 -123 -145 -181 -70 -85 -482 -596 -577 -714 -12 -16 -48 -59 -78 -95
-30 -36 -73 -88 -95 -116 -21 -27 -42 -52 -45 -55 -3 -3 -21 -25 -40 -50 -19
-25 -66 -84 -105 -132 -38 -47 -90 -112 -115 -143 -45 -57 -112 -138 -225
-276 -109 -132 -126 -158 -211 -327 -89 -176 -134 -309 -194 -582 -4 -19 -15
-62 -24 -95 -8 -33 -27 -184 -41 -335 -13 -151 -30 -327 -36 -390 -6 -63 -12
-135 -14 -160 -3 -25 -13 -126 -22 -225 -15 -151 -18 -281 -18 -810 0 -776 13
-2784 20 -3070 3 -115 10 -772 15 -1460 14 -1860 20 -2477 25 -2510 3 -16 10
-120 15 -230 11 -211 24 -350 39 -425 5 -25 17 -83 26 -130 9 -47 23 -113 31
-147 8 -34 14 -71 14 -81 0 -29 45 -157 95 -273 25 -56 45 -110 45 -120 0 -19
36 -52 99 -89 24 -14 55 -35 71 -48 25 -19 43 -23 156 -27 173 -8 1409 -6
1507 2 l77 6 80 79 c47 46 82 90 86 106 3 15 12 42 20 60 8 18 14 41 14 52 0
10 4 21 9 25 5 3 12 20 16 38 4 17 13 50 20 72 8 22 21 67 30 100 9 33 21 71
27 85 6 14 14 54 19 90 4 36 15 115 24 175 8 61 20 148 25 195 6 47 14 105 20
130 5 25 12 112 15 194 3 81 7 151 10 155 10 18 15 1586 6 1981 -6 239 -15
959 -21 1599 -5 641 -12 1188 -15 1215 -3 28 -8 382 -10 786 -3 404 -10 1001
-16 1325 -5 325 -12 849 -15 1165 -7 868 -32 2371 -40 2379 -6 7 -4 -378 6
-1229 6 -426 12 -1022 15 -1325 7 -880 15 -1520 21 -1810 2 -148 6 -454 8
-678 l3 -408 -186 -111 c-102 -61 -203 -122 -224 -136 -20 -14 -39 -23 -42
-21 -8 8 -15 509 -25 1754 -6 677 -12 1276 -14 1333 l-5 103 -98 121 c-54 67
-106 133 -115 147 -17 25 -18 3 -18 -514 0 -297 4 -826 10 -1175 5 -349 12
-1058 15 -1575 4 -517 8 -1012 10 -1100 2 -88 6 -536 9 -995 4 -459 9 -898 11
-976 6 -159 4 -165 -70 -182 -22 -6 -121 -35 -220 -67 -389 -122 -525 -165
-635 -198 -63 -19 -129 -41 -147 -48 -24 -10 -37 -10 -57 -1 l-26 12 0 777 c0
786 -2 1040 -21 2263 -5 371 -10 755 -9 853 0 119 -3 177 -11 177 -7 0 -10
-233 -8 -776 l2 -776 -25 -12 c-25 -13 -109 -62 -265 -152 -50 -30 -94 -54
-96 -54 -10 0 -17 379 -22 1235 -3 490 -8 1003 -11 1140 -8 451 -5 1222 5
1327 6 57 17 186 26 288 9 102 27 300 41 440 13 140 27 282 30 315 9 105 25
209 39 260 8 28 35 132 59 231 41 167 52 195 127 345 100 200 114 221 326 480
92 114 220 271 283 350 63 78 167 206 230 283 64 78 133 164 155 192 70 90
273 341 497 616 188 231 223 268 255 277 42 12 53 8 53 -22 0 -12 5 -29 10
-37 9 -13 10 -13 10 1 0 47 -42 232 -61 265 -61 107 -101 182 -112 207 -12 29
-15 30 -62 17z"/>
<path d="M12481 21589 c0 -13 4 -33 9 -44 7 -14 8 -8 3 20 -7 46 -13 59 -12
24z"/>
<path d="M12505 21440 c7 -118 35 -403 40 -408 6 -7 6 -7 -5 193 -6 94 -17
197 -25 230 l-15 60 5 -75z"/>
<path d="M11780 18499 c-77 -67 -542 -492 -650 -595 -41 -39 -104 -97 -140
-129 -36 -33 -112 -102 -169 -154 l-104 -96 7 -845 c4 -465 9 -860 12 -877 15
-83 21 -2 18 234 -7 625 -5 1482 4 1500 6 10 63 65 128 123 64 58 163 148 218
201 56 52 130 122 166 154 109 98 421 386 490 452 68 66 80 84 20 32z"/>
<path d="M11600 18133 c-69 -64 -156 -146 -195 -182 -38 -36 -119 -111 -180
-166 -60 -55 -160 -148 -223 -208 l-113 -107 0 -358 c0 -196 3 -519 6 -717 2
-198 7 -697 10 -1110 3 -412 7 -928 10 -1145 3 -217 7 -627 10 -910 3 -283 8
-713 11 -955 l6 -440 117 37 c64 21 121 38 128 38 6 0 86 25 178 55 91 30 185
59 208 65 23 6 86 25 141 43 l99 32 -7 295 c-4 162 -11 819 -16 1460 -6 641
-12 1293 -15 1450 -2 157 -7 591 -10 965 -3 374 -8 817 -10 985 -2 168 -5 446
-5 619 -1 299 -5 371 -19 371 -3 0 -62 -53 -131 -117z"/>
<path d="M29200 21478 l0 -346 38 -43 c77 -87 296 -336 386 -438 50 -58 133
-152 185 -210 52 -59 108 -122 125 -141 17 -19 96 -109 176 -199 80 -91 204
-231 275 -311 72 -81 191 -216 265 -301 74 -84 228 -259 343 -387 l207 -234 0
-996 -1 -997 25 -20 c96 -80 207 -174 239 -204 l37 -35 0 1301 c0 724 -4 1303
-9 1305 -4 2 -42 42 -82 89 -113 132 -322 370 -513 584 -35 39 -82 93 -106
120 -24 28 -71 82 -106 120 -34 39 -176 198 -314 355 -138 157 -313 354 -388
439 -75 85 -150 170 -167 190 -16 19 -68 78 -115 131 -47 53 -114 129 -150
170 -36 41 -107 120 -158 176 -51 56 -114 128 -139 161 -24 32 -47 60 -49 62
-2 2 -4 -151 -4 -341z"/>
<path d="M31740 18587 l0 -348 103 -117 c89 -101 211 -242 547 -632 41 -48
197 -228 345 -400 149 -172 315 -365 370 -429 311 -360 500 -578 584 -676 156
-180 275 -319 291 -339 17 -22 17 -26 19 -726 l1 -465 122 -105 c66 -58 154
-136 195 -173 l73 -69 0 877 0 876 -147 171 c-82 94 -164 190 -183 213 -47 58
-369 431 -505 586 -60 69 -157 181 -215 249 -58 68 -141 164 -186 214 -44 50
-106 123 -138 161 -32 39 -63 75 -70 80 -6 6 -33 37 -60 70 -28 33 -68 81 -90
106 -23 25 -93 106 -156 179 -63 73 -146 169 -185 213 -38 44 -95 110 -125
147 -30 36 -80 95 -112 131 -31 35 -116 134 -189 219 -73 85 -155 180 -184
210 -28 30 -63 71 -78 90 l-27 35 0 -348z"/>
<path d="M29936 17873 c-6 -28 -47 -76 -168 -201 l-61 -62 2 -753 c0 -413 4
-841 7 -949 l7 -196 81 -6 c45 -3 153 -8 241 -11 88 -4 183 -8 210 -10 28 -2
165 -10 305 -16 163 -8 258 -16 262 -23 10 -15 14 -1753 4 -1763 -5 -6 -268
127 -402 202 -60 35 -157 86 -215 115 -57 29 -149 78 -204 110 -55 32 -147 81
-205 110 -58 29 -116 60 -130 70 -14 9 -70 41 -125 70 -55 29 -144 77 -198
108 -54 30 -100 52 -103 50 -7 -7 -5 -1892 2 -2293 3 -187 9 -1099 13 -2027 3
-927 8 -1689 11 -1692 8 -7 1818 13 2048 23 106 4 196 11 200 15 8 9 5 1481
-4 2158 l-7 447 -56 16 c-31 8 -78 21 -106 30 -27 8 -142 40 -255 71 -113 31
-232 64 -265 74 -33 10 -105 31 -160 45 -102 28 -216 60 -498 139 -87 24 -161
46 -164 49 -2 3 -8 236 -12 519 -6 424 -5 516 6 528 8 9 192 60 431 121 229
58 469 119 532 136 63 17 128 33 144 37 l29 7 -4 1380 c-2 758 -4 1379 -4
1379 0 1 -620 31 -860 41 -148 6 -274 15 -279 20 -5 5 -11 266 -13 611 -5
1001 -10 1329 -21 1340 -7 7 -12 0 -16 -19z"/>
<path d="M33400 14896 c-6 -8 -81 -54 -166 -101 l-154 -87 -1 -891 c0 -491 0
-914 0 -942 2 -86 3 -86 -190 -1 -96 42 -180 76 -187 76 -9 0 -12 -442 -12
-2106 l0 -2107 323 8 c177 4 345 9 372 10 l50 3 4 3076 c3 2712 1 3076 -12
3076 -8 0 -20 -7 -27 -14z"/>
<path d="M9185 18444 c-11 -8 -46 -29 -79 -47 -60 -32 -91 -65 -231 -243 -98
-125 -97 -123 -131 -163 -37 -43 -92 -111 -272 -336 -75 -93 -200 -247 -277
-342 -77 -94 -170 -209 -207 -255 -36 -46 -149 -184 -250 -308 -101 -124 -205
-254 -233 -289 -27 -35 -75 -94 -105 -131 -272 -333 -353 -433 -402 -496 l-58
-73 0 -3543 0 -3543 337 1 c186 0 348 4 361 8 21 7 22 13 23 114 4 296 3 464
-4 1134 l-7 727 102 83 c221 181 425 344 450 360 51 33 59 27 77 -62 5 -25 64
-263 131 -530 67 -267 126 -503 130 -525 11 -46 21 -88 85 -345 25 -102 54
-221 65 -265 11 -44 48 -197 84 -340 36 -143 68 -272 71 -287 4 -14 14 -28 23
-30 10 -2 205 -3 436 -2 361 2 420 4 434 17 13 14 13 26 -8 119 -52 239 -71
321 -95 418 -9 36 -21 91 -26 123 -5 33 -11 63 -14 67 -3 5 -19 73 -36 152
-69 320 -79 367 -99 453 -12 50 -25 106 -30 125 -5 19 -23 98 -40 175 -33 144
-70 308 -114 500 -14 61 -27 124 -31 140 -11 60 -14 71 -34 155 -11 47 -32
139 -47 205 -15 66 -30 136 -35 155 -4 19 -17 78 -28 130 -11 52 -27 118 -36
145 -8 28 -15 58 -15 69 0 10 24 44 53 76 61 66 192 279 202 330 4 19 11 41
16 50 18 35 39 102 39 125 0 13 6 39 14 57 24 57 34 101 41 173 4 38 9 73 12
78 5 8 24 181 43 392 6 66 15 148 20 181 6 34 10 86 10 117 l0 55 -142 -75
c-79 -41 -147 -78 -153 -83 -5 -4 -113 -62 -240 -128 -126 -66 -308 -161 -404
-211 -95 -51 -178 -90 -183 -89 -6 2 7 25 28 50 102 122 544 645 655 773 l69
80 0 551 c0 303 -3 673 -7 822 l-6 272 -163 110 c-90 60 -165 110 -166 110 -2
0 -2 -26 -1 -57 2 -69 6 -1603 4 -1620 0 -6 -58 -78 -128 -160 -71 -82 -184
-216 -253 -298 -69 -82 -157 -185 -195 -229 -83 -96 -257 -302 -300 -355 -17
-21 -75 -88 -128 -149 -54 -61 -96 -116 -93 -120 3 -5 33 -17 66 -26 33 -9 60
-22 60 -27 0 -5 -35 -26 -77 -46 -43 -20 -147 -69 -232 -109 -84 -41 -160 -74
-167 -74 -12 0 -14 246 -14 1554 l0 1553 26 38 c14 21 55 74 93 119 37 44 143
176 236 291 93 116 202 251 243 300 40 50 162 200 270 335 108 135 201 250
207 256 13 15 83 101 255 314 213 265 315 391 420 520 52 64 129 159 170 210
105 130 137 166 145 158 4 -3 13 -24 20 -45 8 -21 14 -33 15 -27 0 11 -51 240
-66 294 -6 22 -135 171 -153 177 -3 1 -15 -5 -26 -13z"/>
<path d="M9436 17905 c17 -180 23 -210 17 -91 -2 65 -9 128 -14 140 -6 14 -7
-2 -3 -49z"/>
<path d="M9462 17660 c0 -19 2 -27 5 -17 2 9 2 25 0 35 -3 9 -5 1 -5 -18z"/>
<path d="M9475 17340 c3 -85 5 -374 5 -642 1 -320 4 -488 11 -488 14 0 5 1215
-10 1255 -8 23 -10 -6 -6 -125z"/>
<path d="M9485 15763 c2 -241 4 -694 5 -1008 0 -673 9 -1134 22 -1111 8 15 12
1171 4 1185 -3 6 -21 1302 -18 1349 1 12 -3 22 -8 22 -6 0 -8 -158 -5 -437z"/>
<path d="M8504 15482 c-110 -103 -311 -290 -447 -415 -136 -126 -247 -231
-247 -234 0 -6 160 138 337 303 76 71 190 176 253 234 63 58 147 134 185 171
39 36 83 77 100 92 16 14 27 29 24 31 -3 3 -95 -79 -205 -182z"/>
<path d="M8543 15319 c-48 -46 -128 -122 -178 -169 -49 -47 -139 -130 -200
-185 -60 -55 -150 -138 -200 -185 -50 -47 -110 -103 -134 -124 l-44 -40 7
-780 c4 -429 8 -782 10 -783 3 -4 107 115 276 316 116 138 149 178 425 500
l150 176 -4 670 c-2 369 -7 674 -11 679 -5 4 -48 -29 -97 -75z"/>
<path d="M7687 14727 l-57 -52 1 -620 c1 -341 5 -732 9 -870 4 -168 7 37 8
620 l2 869 52 53 c66 67 60 67 -15 0z"/>
<path d="M9492 13550 c0 -19 2 -27 5 -17 2 9 2 25 0 35 -3 9 -5 1 -5 -18z"/>
<path d="M7641 12914 c0 -11 3 -14 6 -6 3 7 2 16 -1 19 -3 4 -6 -2 -5 -13z"/>
<path d="M7640 12803 c-3 -45 -1 -78 3 -74 4 4 7 41 5 82 l-3 74 -5 -82z"/>
</g>
</svg>
